<svg width="536" height="124" viewBox="0 0 536 124" fill="none" xmlns="http://www.w3.org/2000/svg">
<g clip-path="url(#clip0_1288_157)">
<path d="M0.186523 35.7236V85.0463C0.186523 92.3729 0.186523 96.0364 0.804662 99.0805C3.27667 111.255 12.7977 120.77 24.9799 123.24C28.0261 123.858 31.6917 123.858 39.023 123.858H84.3324C95.3101 123.858 100.799 123.858 105.217 122.333C113.304 119.542 119.66 113.191 122.452 105.109C123.978 100.694 123.978 95.2085 123.978 84.238V35.7236C123.978 31.4053 123.978 29.2463 123.763 27.4313C122.078 13.2369 110.879 2.0455 96.6755 0.361796C94.8593 0.146484 92.6989 0.146484 88.3778 0.146484H35.5558C24.9506 0.146484 19.648 0.146481 15.4355 1.79282C9.20255 4.22882 4.27152 9.15665 1.83394 15.3856C0.186523 19.5953 0.186523 24.9713 0.186523 35.7236Z" fill="#E1E1E1"/>
<path d="M136.22 35.7236V85.0463C136.22 92.3729 136.22 96.0364 136.838 99.0802C139.31 111.255 148.831 120.77 161.013 123.24C164.06 123.858 167.725 123.858 175.056 123.858H220.366C231.344 123.858 236.833 123.858 241.251 122.333C249.338 119.542 255.693 113.191 258.486 105.109C260.012 100.694 260.012 95.2085 260.012 84.2377V35.7236C260.012 31.4053 260.012 29.2463 259.796 27.4313C258.111 13.2369 246.913 2.04551 232.709 0.361796C230.893 0.146484 228.732 0.146484 224.411 0.146484H171.589C160.984 0.146484 155.681 0.146484 151.469 1.79284C145.236 4.22885 140.305 9.15665 137.867 15.3856C136.22 19.5953 136.22 24.9713 136.22 35.7236Z" fill="#E1E1E1"/>
<path d="M274.501 35.7236V85.0463C274.501 92.3729 274.501 96.0364 275.119 99.0802C277.591 111.255 287.112 120.77 299.294 123.24C302.34 123.858 306.006 123.858 313.338 123.858H358.646C369.624 123.858 375.112 123.858 379.531 122.333C387.619 119.542 393.974 113.191 396.766 105.109C398.292 100.694 398.292 95.2085 398.292 84.2377V35.7236C398.292 31.4053 398.292 29.2463 398.078 27.4313C396.391 13.2369 385.192 2.04551 370.989 0.361796C369.173 0.146484 367.014 0.146484 362.693 0.146484H309.87C299.265 0.146484 293.962 0.146484 289.75 1.79284C283.517 4.22885 278.586 9.15665 276.148 15.3856C274.501 19.5953 274.501 24.9713 274.501 35.7236Z" fill="#E1E1E1"/>
<path d="M412.201 35.7236V85.0463C412.201 92.3729 412.201 96.0364 412.819 99.0805C415.293 111.255 424.813 120.77 436.995 123.24C440.04 123.858 443.706 123.858 451.038 123.858H496.348C507.327 123.858 512.815 123.858 517.234 122.333C525.319 119.542 531.676 113.191 534.469 105.109C535.995 100.694 535.995 95.2085 535.995 84.238V35.7236C535.995 31.4053 535.995 29.2463 535.777 27.4313C534.094 13.2369 522.895 2.0455 508.692 0.361796C506.876 0.146484 504.714 0.146484 500.392 0.146484H447.57C436.967 0.146484 431.662 0.146481 427.451 1.79282C421.219 4.22882 416.286 9.15665 413.85 15.3856C412.201 19.5953 412.201 24.9713 412.201 35.7236Z" fill="#E1E1E1"/>
<path d="M88.3888 3.23633H26.4932C13.6741 3.23633 3.28223 13.6215 3.28223 26.4322V88.2878C3.28223 101.099 13.6741 111.483 26.4932 111.483H88.3888C101.208 111.483 111.6 101.099 111.6 88.2878V26.4322C111.6 13.6215 101.208 3.23633 88.3888 3.23633Z" fill="white"/>
<path d="M88.3888 3.23633H26.4932C13.6741 3.23633 3.28223 13.6215 3.28223 26.4322V88.2878C3.28223 101.099 13.6741 111.483 26.4932 111.483H88.3888C101.208 111.483 111.6 101.099 111.6 88.2878V26.4322C111.6 13.6215 101.208 3.23633 88.3888 3.23633Z" fill="url(#paint0_linear_1288_157)" fill-opacity="0.5"/>
<path d="M88.3888 3.23633H26.4932C13.6741 3.23633 3.28223 13.6215 3.28223 26.4322V88.2878C3.28223 101.099 13.6741 111.483 26.4932 111.483H88.3888C101.208 111.483 111.6 101.099 111.6 88.2878V26.4322C111.6 13.6215 101.208 3.23633 88.3888 3.23633Z" fill="white" fill-opacity="0.9"/>
<path d="M224.42 3.23633H162.524C149.705 3.23633 139.313 13.6215 139.313 26.4322V88.2878C139.313 101.099 149.705 111.483 162.524 111.483H224.42C237.239 111.483 247.63 101.099 247.63 88.2878V26.4322C247.63 13.6215 237.239 3.23633 224.42 3.23633Z" fill="white"/>
<path d="M224.42 3.23633H162.524C149.705 3.23633 139.313 13.6215 139.313 26.4322V88.2878C139.313 101.099 149.705 111.483 162.524 111.483H224.42C237.239 111.483 247.63 101.099 247.63 88.2878V26.4322C247.63 13.6215 237.239 3.23633 224.42 3.23633Z" fill="url(#paint1_linear_1288_157)" fill-opacity="0.5"/>
<path d="M224.42 3.23633H162.524C149.705 3.23633 139.313 13.6215 139.313 26.4322V88.2878C139.313 101.099 149.705 111.483 162.524 111.483H224.42C237.239 111.483 247.63 101.099 247.63 88.2878V26.4322C247.63 13.6215 237.239 3.23633 224.42 3.23633Z" fill="white" fill-opacity="0.9"/>
<path d="M362.705 3.2394H300.808C287.988 3.2394 277.596 13.6246 277.596 26.4353V88.2907C277.596 101.101 287.988 111.487 300.808 111.487H362.705C375.521 111.487 385.913 101.101 385.913 88.2907V26.4353C385.913 13.6246 375.521 3.2394 362.705 3.2394Z" fill="white"/>
<path d="M362.705 3.2394H300.808C287.988 3.2394 277.596 13.6246 277.596 26.4353V88.2907C277.596 101.101 287.988 111.487 300.808 111.487H362.705C375.521 111.487 385.913 101.101 385.913 88.2907V26.4353C385.913 13.6246 375.521 3.2394 362.705 3.2394Z" fill="url(#paint2_linear_1288_157)" fill-opacity="0.5"/>
<path d="M362.705 3.2394H300.808C287.988 3.2394 277.596 13.6246 277.596 26.4353V88.2907C277.596 101.101 287.988 111.487 300.808 111.487H362.705C375.521 111.487 385.913 101.101 385.913 88.2907V26.4353C385.913 13.6246 375.521 3.2394 362.705 3.2394Z" fill="white" fill-opacity="0.9"/>
<path d="M500.404 3.23633H438.507C425.691 3.23633 415.298 13.6215 415.298 26.4322V88.2878C415.298 101.099 425.691 111.483 438.507 111.483H500.404C513.223 111.483 523.615 101.099 523.615 88.2878V26.4322C523.615 13.6215 513.223 3.23633 500.404 3.23633Z" fill="white"/>
<path d="M500.404 3.23633H438.507C425.691 3.23633 415.298 13.6215 415.298 26.4322V88.2878C415.298 101.099 425.691 111.483 438.507 111.483H500.404C513.223 111.483 523.615 101.099 523.615 88.2878V26.4322C523.615 13.6215 513.223 3.23633 500.404 3.23633Z" fill="url(#paint3_linear_1288_157)" fill-opacity="0.5"/>
<path d="M500.404 3.23633H438.507C425.691 3.23633 415.298 13.6215 415.298 26.4322V88.2878C415.298 101.099 425.691 111.483 438.507 111.483H500.404C513.223 111.483 523.615 101.099 523.615 88.2878V26.4322C523.615 13.6215 513.223 3.23633 500.404 3.23633Z" fill="white" fill-opacity="0.9"/>
<path d="M49.9836 97.058C58.0913 97.058 63.3419 93.5243 66.0209 88.4201H66.4492V96.0229H80.8793V59.0435C80.8793 45.9795 69.8068 40.4824 57.5914 40.4824C44.4473 40.4824 35.8038 46.7648 33.6963 56.7591L47.7693 57.9013C48.8047 54.2605 52.0551 51.5833 57.5201 51.5833C62.6989 51.5833 65.6634 54.189 65.6634 58.6866V58.9008C65.6634 62.4345 61.9131 62.8988 52.3766 63.8264C41.5187 64.8259 31.7676 68.467 31.7676 80.7101C31.7676 91.5612 39.5185 97.058 49.9836 97.058ZM54.3413 86.5638C49.6621 86.5638 46.3048 84.3865 46.3048 80.2102C46.3048 75.9272 49.8408 73.8211 55.1983 73.0717C58.5199 72.6074 63.949 71.8221 65.7706 70.6084V76.4268C65.7706 82.1736 61.0205 86.5638 54.3413 86.5638Z" fill="black"/>
<path d="M195.264 97.0926C208.837 97.0926 217.981 90.4892 220.124 80.3163L206.051 79.3883C204.515 83.5646 200.586 85.7418 195.514 85.7418C187.907 85.7418 183.085 80.7088 183.085 72.5348V72.4992H220.445V68.323C220.445 49.6904 209.159 40.4814 194.657 40.4814C178.513 40.4814 168.047 51.9392 168.047 68.8582C168.047 86.2414 178.37 97.0926 195.264 97.0926ZM183.085 63.0757C183.406 56.8293 188.157 51.8321 194.907 51.8321C201.515 51.8321 206.087 56.5439 206.123 63.0757H183.085ZM188.835 34.1278H199.586L210.48 17.8867H196.407L188.835 34.1278Z" fill="black"/>
<path d="M308.904 96.1388H355.165V83.9634H328.937V83.5694L354.235 51.0541V41.1348H309.836V53.3101H335.852V53.7042L308.904 87.0429V96.1388Z" fill="black"/>
<path d="M461.999 97.058C470.106 97.058 475.358 93.5243 478.037 88.4201H478.466V96.0229H492.896V59.0435C492.896 45.9795 481.823 40.4824 469.605 40.4824C456.461 40.4824 447.818 46.7648 445.713 56.7591L459.783 57.9013C460.821 54.2605 464.07 51.5833 469.536 51.5833C474.715 51.5833 477.678 54.189 477.678 58.6866V58.9008C477.678 62.4345 473.93 62.8988 464.392 63.8264C453.533 64.8259 443.784 68.467 443.784 80.7101C443.784 91.5612 451.535 97.058 461.999 97.058ZM466.355 86.5638C461.678 86.5638 458.321 84.3865 458.321 80.2102C458.321 75.9272 461.858 73.8211 467.213 73.0717C470.535 72.6074 475.963 71.8221 477.785 70.6084V76.4268C477.785 82.1736 473.035 86.5638 466.355 86.5638Z" fill="black"/>
</g>
<defs>
<linearGradient id="paint0_linear_1288_157" x1="3.10203" y1="8.79668" x2="519.242" y2="120.476" gradientUnits="userSpaceOnUse">
<stop stop-color="#111F28"/>
<stop offset="1" stop-color="#615242"/>
</linearGradient>
<linearGradient id="paint1_linear_1288_157" x1="3.10203" y1="8.79668" x2="519.242" y2="120.476" gradientUnits="userSpaceOnUse">
<stop stop-color="#111F28"/>
<stop offset="1" stop-color="#615242"/>
</linearGradient>
<linearGradient id="paint2_linear_1288_157" x1="3.10203" y1="8.79668" x2="519.242" y2="120.476" gradientUnits="userSpaceOnUse">
<stop stop-color="#111F28"/>
<stop offset="1" stop-color="#615242"/>
</linearGradient>
<linearGradient id="paint3_linear_1288_157" x1="3.10203" y1="8.79668" x2="519.242" y2="120.476" gradientUnits="userSpaceOnUse">
<stop stop-color="#111F28"/>
<stop offset="1" stop-color="#615242"/>
</linearGradient>
<clipPath id="clip0_1288_157">
<rect width="536" height="124" fill="white"/>
</clipPath>
</defs>
</svg>
